<?xml version="1.0" encoding="utf-8"?>
<!-- Generator: Adobe Illustrator 16.0.0, SVG Export Plug-In . SVG Version: 6.00 Build 0)  -->
<!DOCTYPE svg PUBLIC "-//W3C//DTD SVG 1.1//EN" "http://www.w3.org/Graphics/SVG/1.1/DTD/svg11.dtd">
<svg version="1.1" id="Layer_1" xmlns="http://www.w3.org/2000/svg" xmlns:xlink="http://www.w3.org/1999/xlink" x="0px" y="0px"
	 width="401px" height="316px" viewBox="0 0 401 316" enable-background="new 0 0 401 316" xml:space="preserve">
<g id="Group">
	<g id="Wedding">
		<path fill-rule="evenodd" clip-rule="evenodd" d="M311.635,299c-3.279-1.086-4.109-2.66-2.279-6.344
			c1.904-3.838,4.223-7.578,6.742-11.107c9.573-13.412,20.446-25.807,31.054-38.412c2.295-2.727,4.186-5.83,6.051-8.875
			c3.824-6.248,7.506-12.574,11.498-19.293c-1.896,1.404-3.348,2.676-4.941,3.611c-2.281,1.336-4.619,2.658-7.018,3.574
			c-4.051,1.547-7.377-0.824-7.42-5.025c-0.012-1.193,0.1-2.412,0.15-3.539c-1.664,1.707-3.398,3.729-5.371,5.438
			c-2.029,1.758-4.211,3.393-6.479,4.744c-2.08,1.24-4.195,1.244-5.916-0.166c-1.746-1.432-1.949-3.568-1.205-5.809
			c0.908-2.746,2.107-5.461,3.383-8.117c1.908-3.975,3.992-7.885,5.996-11.824c0.115-0.226,0.18-0.473,0.039-0.978
			c-1.846,1.406-3.723,2.771-5.535,4.227c-7.949,6.395-14.761,14.074-21.997,21.275c-1.301,1.291-2.781,2.42-4.264,3.479
			c-1.008,0.721-2.121,0.848-3.043,0.141c-0.92-0.707-1.32-1.74-0.885-2.986c0.572-1.635,1.184-3.316,2.084-4.822
			c2.955-4.939,6.047-9.807,9.082-14.705c0.299-0.48,0.562-0.98,0.844-1.473c-0.098-0.096-0.195-0.191-0.295-0.287
			c-1.912,1.713-3.803,3.453-5.742,5.131c-3.754,3.252-6.371,7.477-9.6,11.172c-3.303,3.781-6.727,7.492-10.361,10.93
			c-1.748,1.654-4.033,2.879-6.199,3.807c-3.215,1.375-5.93-0.471-5.783-3.85c0.092-2.123,0.719-4.312,1.09-6.383
			c-1.428,1.322-2.961,2.934-4.672,4.281c-2.156,1.695-4.375,3.379-6.715,4.705c-4.934,2.793-8.732,1.361-10.154-3.574
			c-0.186-0.643-0.334-1.299-0.559-2.174c-1.43,1.264-2.738,2.434-4.059,3.592c-4.01,3.52-8.045,7.018-12.961,8.82
			c-1.205,0.441-2.49,0.855-3.684,0.891c-4.4,0.125-5.316-3.332-4.918-7.512c0.037-0.389,0.137-0.783,0.252-1.42
			c-2.746,2.439-5.215,4.83-7.873,6.934c-2.102,1.666-4.352,3.217-6.68,4.408c-4.648,2.377-8.611,0.35-9.373-3.621
			c-0.023-0.131-0.141-0.232-0.271-0.438c-1.264,0.916-2.504,1.844-3.771,2.719c-2.412,1.662-4.893,3.051-7.674,3.367
			c-3.325,0.379-5.934-1.52-6.218-4.881c-0.147-1.746,0.125-3.602,0.2-5.299c-3.804,2.908-7.629,5.9-11.518,8.785
			c-3.328,2.467-6.926,4.33-10.721,5.254c-7.024,1.709-10.158-2.412-9.281-9.459c0.604-4.855,3.293-9.064,6.464-12.965
			c3.607-4.439,7.647-8.436,12.348-11.59c1.447-0.973,3.042-1.793,4.628-2.354c4.864-1.717,8.316,1.852,6.442,6.836
			c-0.857,2.287-2.235,4.572-3.78,6.555c-4.726,6.072-10.231,11.223-17.07,14.443c-1.475,0.693-3.059,1.025-4.614,1.531
			c0.233,2.615,1.924,3.627,4.863,2.66c3.218-1.061,6.034-3.07,8.74-5.225c5.932-4.729,11.84-9.492,17.652-14.391
			c2.185-1.842,4.061-4.102,6.097-6.148c3.264-3.277,6.842-6.035,10.922-7.918c2.357-1.088,4.686-1.721,6.51-0.463
			c4.352-6.236,8.512-12.503,13.004-18.539c3.25-4.365,6.568-8.771,10.967-12.115c1.803-1.369,3.693-2.283,5.822-2.438
			c3.424-0.248,5.135,1.767,4.059,5.264c-0.648,2.101-1.561,4.204-2.633,6.182c-4.84,8.914-11.033,16.968-17.404,24.908
			c-5.453,6.795-11.086,13.42-17.365,19.459c-0.979,0.939-1.355,3.471-0.658,4.439c0.795,1.107,2.133,0.678,3.09,0.025
			c3.225-2.207,6.494-4.41,9.475-6.977c3.537-3.047,6.816-6.445,10.158-9.746c0.922-0.912,1.672-2.014,2.488-3.039
			c3.141-3.951,6.752-7.328,11.096-9.65c1.449-0.773,3.096-1.129,4.656-1.434c0.715-0.139,1.518,0.184,2.143,0.521
			c1.242,0.672,1.061,1.664-0.285,2.662c-2.811,2.078-5.777,3.988-8.328,6.383c-4.713,4.422-8.34,9.658-10.598,15.648
			c-0.365,0.977-0.498,2.008-0.852,3.479c1.236-0.445,2.268-0.586,3.07-1.145c4.236-2.93,8.416-5.963,12.615-8.965
			c0.043-0.029,0.078-0.076,0.125-0.105c3.578-2.447,5.598-5.557,6.75-9.834c1.912-7.092,5.732-13.693,9.691-20.148
			c5.574-9.096,11.936-17.614,19.486-25.241c2.623-2.65,5.322-5.237,8.852-6.229c3.479-0.978,7.369,0.533,5.887,5.428
			c-0.889,2.938-2.213,5.877-3.732,8.639c-4.129,7.516-9.516,14.244-15.16,20.713c-6.617,7.583-13.518,14.917-20.26,22.392
			c-0.48,0.537-0.801,1.354-0.939,2.049c-0.182,0.91-0.141,1.832-0.143,2.742c-0.008,3.057,1.682,4.146,4.414,2.35
			c2.889-1.898,5.605-4.205,8.207-6.572c3.586-3.262,7.004-6.734,10.469-10.143c0.49-0.484,0.881-1.096,1.27-1.678
			c2.033-3.031,3.99-6.111,6.09-9.097c1.832-2.605,4.236-3.815,7.072-3.482c2.057,0.242,2.283,0.852,0.969,2.758
			c-2.764,3.992-5.721,7.876-8.291,11.972c-3.023,4.824-5.732,9.822-8.541,14.764c-0.414,0.727-0.613,1.553-0.682,2.604
			c0.709-0.492,1.5-0.896,2.121-1.492c5.148-4.953,10.318-9.885,15.377-14.936c3.707-3.697,7.215-7.604,10.893-11.333
			c1.846-1.873,3.877-3.518,6.484-3.666c1.863-0.105,3.105,0.766,2.793,2.682c-0.297,1.822-0.984,3.751-1.916,5.449
			c-1.846,3.365-3.979,6.602-5.988,9.895c-0.271,0.439-0.516,0.895-0.609,1.443c2.557-2.58,5.051-5.23,7.682-7.723
			c4.985-4.725,9.981-9.445,15.122-13.976c1.572-1.389,3.59-2.311,5.482-3.164c2.537-1.142,5.041,0.497,4.818,3.203
			c-0.145,1.742-0.562,3.608-1.289,5.289c-2.416,5.605-5.027,11.152-7.562,16.722c-0.213,0.469-0.4,0.949-0.6,1.426
			c0.08,0.105,0.162,0.211,0.244,0.316c1.584-1.133,3.27-2.131,4.732-3.42c4.941-4.35,9.814-8.787,14.693-13.217
			c3.219-2.923,6.258-6.105,9.641-8.778c4.113-3.251,8.664-5.491,13.59-6.112c1.26-0.158,2.355-0.037,2.434,1.433
			c0.074,1.433-0.934,2.062-2.182,2.563c-9.041,3.644-16.34,9.818-21.91,18.238c-1.344,2.027-2.186,4.422-2.953,6.707
			c-0.609,1.809,0.002,2.27,1.639,1.404c2.379-1.254,4.83-2.467,7-4.098c3.799-2.855,7.449-5.957,11.068-9.084
			c1.203-1.037,2.15-2.434,3.146-3.718c0.967-1.248,1.758-2.639,2.787-3.827c1.59-1.843,3.031-2.211,4.188-1.292
			c1.16,0.926,1.174,2.96-0.164,4.668c-0.93,1.185-2.018,2.294-3.16,3.273c-1.477,1.266-2.639,2.643-3.484,4.422
			c-2.135,4.508-4.412,8.965-6.631,13.441c0.332-0.336,0.729-0.73,1.117-1.137c6.785-7.055,13.537-14.137,20.367-21.148
			c1.746-1.791,3.709-3.367,5.615-4.98c0.33-0.28,0.887-0.254,1.34-0.369c-0.039,0.473,0.094,1.056-0.145,1.398
			c-0.844,1.2-1.783,2.346-2.744,3.465c-6.418,7.476-12.814,14.97-19.285,22.4c-6.076,6.979-12.238,13.881-18.35,20.83
			c-0.426,0.484-0.771,1.055-1.098,1.613c-8.273,14.113-17.145,27.885-26.713,41.246c-3.402,4.75-6.958,9.424-11.501,13.184
			c-0.816,0.676-1.721,1.23-2.586,1.84C312.828,298.846,312.23,298.922,311.635,299z M262.715,210.166
			c0.217-0.184,0.387-0.301,0.525-0.445c7.785-8.156,15.301-16.558,21.957-25.669c2.824-3.863,5.262-7.997,7.777-12.062
			c0.639-1.027,0.895-2.262,1.42-3.641C287.346,170.92,266.459,198.739,262.715,210.166z M212.045,212.523
			c-0.098-0.119-0.195-0.236-0.293-0.355c-2.982,2.295-6.072,4.447-8.918,6.92c-4.582,3.973-8.259,8.693-10.643,14.258
			c-0.62,1.445-1.645,3.254-0.534,4.307c1.08,1.023,2.86,0.158,4.198-0.725c2.542-1.678,5.02-3.492,7.458-5.357
			c0.611-0.467,1.111-1.303,1.408-2.035c0.98-2.42,1.734-4.902,2.775-7.299C208.916,218.969,210.52,215.758,212.045,212.523z
			 M242.23,182.706c-5.914,3.035-26.789,31.753-28.053,38.539c8.061-8.891,15.754-17.922,22.363-27.793
			C238.77,190.124,241.025,186.761,242.23,182.706z M159.46,236.195c0.216-0.09,0.406-0.129,0.563-0.234
			c3.507-2.359,7.163-4.496,10.466-7.152c3.509-2.82,6.537-6.26,8.819-10.238c0.582-1.016,1.236-2.068,0.697-3.154
			C173.751,216.096,161.108,228.865,159.46,236.195z M315.361,290.482c-0.153,0.788,0.118,0.809,0.635,0.453
			c5.723-5.342,9.879-8.936,14.356-19.459c0.381-0.888,0.866-2.133-0.6-0.418C322.75,277.5,319.688,283.125,315.361,290.482z"/>
		<path fill-rule="evenodd" clip-rule="evenodd" d="M180.892,151.664c2.521,0.788,2.509,3.361,2.972,5.519
			c0.838,3.903-0.358,7.971-2.103,11.757c-3.549,7.708-7.462,15.293-11.293,22.902c-8.433,16.743-17.575,33.155-27.898,48.995
			c-7.896,12.115-16.383,23.848-25.661,34.994c-5.456,6.555-11.193,12.9-17.069,19.076c-4.745,4.986-9.993,9.453-16.053,12.479
			c-1.85,0.924-3.908,1.744-5.805,1.896c-3.551,0.287-5.593-2.066-6.064-5.855c-0.467-3.777,0.398-7.588,1.344-11.416
			c0.625-2.527,1.309-5.051,1.968-7.578c-0.173-0.129-0.347-0.26-0.519-0.391c-0.404,0.637-0.734,1.336-1.221,1.898
			c-4.676,5.398-9.679,10.449-15.586,14.311c-2.521,1.646-5.254,3.07-7.99,4.059c-5.132,1.854-8.395-0.57-8.638-5.814
			c-0.208-4.473,0.699-8.957,1.924-13.436c5.385-19.684,14.877-37.799,27.469-54.645c4.02-5.377,8.483-10.439,12.694-15.584
			c-1.062,0.734-2.24,1.57-3.438,2.371c-0.758,0.506-1.524,1.146-2.325,1.375c-0.682,0.197-1.724,0.152-2.037-0.271
			c-0.262-0.354,0.081-1.615,0.538-2.115c1.469-1.611,3.049-3.143,4.703-4.549c5.789-4.928,11.597-9.832,17.458-14.663
			c3.721-3.068,7.67-3.753,11.666-2.732c0.319,0.082,0.652,0.145,0.937,0.287c1.054,0.527,1.038,1.426-0.061,2.213
			c-9.112,6.526-16.563,14.944-23.938,23.358c-11.569,13.203-20.858,27.84-28.683,43.307c-4.156,8.215-7.285,16.693-9.559,25.352
			c-0.838,3.193-1.399,6.443-0.607,9.869c0.946-0.439,1.891-0.762,2.738-1.295c4.372-2.74,8.039-6.406,11.604-10.197
			c7.848-8.348,14.898-17.348,21.771-26.488c0.449-0.596,0.767-1.305,1.068-1.986c3.624-8.195,7.143-16.439,12.022-24.139
			c1.562-2.469,3.372-4.844,5.312-7.043c1.024-1.162,2.508-2.105,3.897-2.703c2.65-1.143,4.958,0.504,4.862,3.324
			c-0.117,3.424-1.715,6.609-3.481,9.652c-6.164,10.617-12.713,21.016-20.229,30.85c-0.991,1.295-1.579,2.928-2.196,4.447
			c-2.565,6.338-5.139,12.68-6.546,19.246c-0.448,2.092-0.938,4.189-1.24,6.279c-0.167,1.146-0.123,2.338,0.079,3.418
			c0.341,1.846,0.933,2.229,2.7,1.184c2.919-1.721,5.871-3.529,8.496-5.734c8.262-6.941,15.201-15.189,21.78-23.766
			c16.494-21.494,30.274-44.498,42.829-68.145c7.068-13.311,13.729-26.8,20.401-40.274c1.463-2.952,2.245-6.172,3.249-9.284
			c0.518-1.6,1.12-3.085,2.562-4.158C180.095,151.767,180.495,151.715,180.892,151.664z"/>
		<path fill-rule="evenodd" clip-rule="evenodd" d="M395.764,224.795c-1.229,3.168-3.469,5.295-5.951,5.646
			c-1.939,0.273-3.09-0.76-3.066-2.756c0.033-2.664,2.768-5.896,5.367-6.422c1.789-0.361,2.992,0.223,3.734,1.699
			C395.818,223.572,395.791,224.184,395.764,224.795z"/>
		<path fill-rule="evenodd" clip-rule="evenodd" d="M307.799,180.076c-0.115,0.299-0.211,1.248-0.713,1.723
			c-1.711,1.614-3.479,3.219-5.389,4.516c-1.207,0.818-2.561,0.508-3.434-0.49c-0.867-0.99-0.945-2.216-0.164-3.61
			c1.236-2.211,2.727-4.21,4.982-5.405C305.865,175.334,307.963,176.611,307.799,180.076z"/>
	</g>
	<path id="erts" fill-rule="evenodd" clip-rule="evenodd" d="M366.866,64.745c-1.552-1.779-3.641-2.703-6.191-2.401
		c-13.973,1.651-27.949,3.375-41.925,5.077c-2.163,0.263-4.327,0.535-6.641,0.823c0.443-0.63,0.852-1.189,1.235-1.764
		c1.999-3,3.989-6.016,4.328-9.551c0.204-2.111-0.63-3.13-2.645-3.246c-3.079-0.176-5.743,1.566-8.374,3.387
		c-5.353,3.7-9.516,8.566-13.224,13.91c-0.454,0.655-1.33,1.311-2.045,1.488c-4.216,1.047-8.442,1.924-12.662,2.914
		c-5.609,1.317-11.218,2.665-16.822,4.036c-5.355,1.309-10.719,2.572-16.062,4.028c-5.321,1.45-11.526,3.042-16.651,5.833
		c0.168,2.113,0.873,3.101,2.516,2.763c5.566-1.14,11.133-2.236,16.699-3.408c0.82-0.172,1.771-0.48,2.422-1.043
		c3.096-2.682,6.601-3.035,10.059-3.794c5.563-1.224,11.124-2.517,16.688-3.756c3.723-0.829,7.445-1.617,11.418-2.477
		c-0.747,1.271-1.366,2.376-2.034,3.457c-5.845,9.456-10.611,19.31-14.489,29.505c-0.309,0.81-0.81,1.67-1.424,2.295
		c-5.699,5.804-11.148,11.904-17.694,16.719c-1.034,0.76-2.162,1.377-3.271,1.998c-0.966,0.542-1.387,0.129-1.096-0.838
		c0.434-1.452,0.863-2.943,1.555-4.314c2.438-4.824,5.914-8.993,9.339-13.188c1.454-1.78,2.919-3.551,4.354-5.343
		c0.941-1.175,1.523-2.423,0.881-3.713c-0.658-1.326-1.782-2.073-3.373-1.671c-1.314,0.332-2.603,1.029-3.906,1.549
		c-1.581,0.632-3.166,1.25-5.033,1.984c0.946-2.146,1.824-3.817,2.409-5.546c0.764-2.258,0.347-3.612-1.024-4.424
		c-1.599-0.948-3.586-0.725-5.299,0.596c-2.444,1.882-3.828,5.417-2.777,8.271c0.674,1.833,0.037,3.085-0.949,4.796
		c-3.27,5.668-8.1,9.868-12.724,14.225c-3.918,3.69-8.065,7.124-12.195,10.554c-1.181,0.98-2.618,1.695-4.001,2.285
		c-2.416,1.028-4.327-0.198-3.928-2.724c0.341-2.15,1.215-4.318,1.982-6.45c0.135-0.378,0.873-0.713,1.37-0.913
		c5.535-2.225,10.618-5.302,14.57-10.249c1.159-1.449,2.011-3.201,2.769-4.89c1.91-4.251-1.102-8.129-6.326-6.341
		c-3.9,1.336-6.906,4.125-9.416,7.363c-2.289,2.947-4.156,6.222-6.067,9.424c-0.552,0.923-1.052,1.282-1.905,1.211
		c-0.768-0.063-1.529-0.153-2.285-0.258l-3.271,3.85c1.709,0.419,3.328,0.815,4.662,1.143c-0.328,2.504-0.801,4.859-0.904,7.166
		c-0.221,4.957,3.645,7.647,8.477,6.222c3.102-0.914,5.809-2.692,8.41-4.742c8.392-6.611,15.236-14.819,22.217-22.882
		c0.887-1.024,1.723-2.092,2.347-2.852c1.761,0.17,3.241,0.314,4.716,0.457c-1.688,2.533-3.428,5.038-5.053,7.605
		c-2.188,3.458-4.061,7.044-4.883,10.939c-0.554,2.627-0.076,4.865,1.867,6.302c1.787,1.324,3.902,1.007,6.123-0.133
		c3.333-1.711,6.035-4.337,8.699-6.994c2.891-2.883,5.697-5.854,8.692-8.944c-0.127,0.551-0.22,0.932-0.305,1.315
		c-0.763,3.455-1.208,6.849-0.081,9.994c0.715,1.993,1.994,3.231,4.25,3.207c2.159-0.023,4.097-1.092,5.99-2.393
		c5.21-3.586,9.707-8.049,13.928-12.798c2.831-3.185,8.409-9.631,11.361-12.704c3.132-3.26,7.403-7.895,10.59-11.109
		c0.2,0.021,0.131,1.479,0.333,1.5c0.41,6.533-0.833,8.917-3.475,13.611c-0.193,0.344-0.807,0.887-1.289,1.081
		c-3.764,1.51-7.604,2.749-11.297,4.484c-3.594,1.688-6.025,6.291-5.386,9.377c0.71,3.435,4.744,5.308,8.771,3.983
		c6.287-2.068,10.874-6.341,13.376-12.631c0.987-2.48,2.285-3.679,4.572-4.689c5.835-2.579,10.917-6.464,14.944-11.815
		c0.775-1.03,1.56-2.14,0.979-3.66c-0.693,0.437-1.377,0.782-1.974,1.256c-2.71,2.158-5.312,4.503-8.118,6.486
		c-2.401,1.697-5.028,2.994-7.725,4.567c0.275-1.607,0.57-2.783,0.664-3.94c0.386-4.791,0.696-9.574,1.07-14.365
		c0.077-1.011,0.221-2.044,0.48-3.054c0.552-2.154,0.166-3.312-1.362-3.665c-1.538-0.356-2.894,0.673-3.863,2.583
		c-0.81,1.596-1.829,3.139-2.897,4.595c-8.472,11.546-21.065,23.427-21.065,23.427c-4.366,3.94-8.667,7.965-13.083,11.839
		c-1.216,1.067-2.748,1.726-4.135,2.572c-0.18-0.113-0.359-0.227-0.539-0.341c0.071-1.387-0.123-2.811,0.266-4.155
		c1.039-3.581,2.228-7.15,3.562-10.676c0.699-1.852,1.506-3.9,2.814-5.348c9.491-10.483,18.433-21.386,26.553-32.934
		c0.89-1.266,1.745-1.703,3.005-1.523c-0.061,0.179-0.071,0.292-0.13,0.366c-0.273,0.341-0.564,0.669-0.841,1.008
		c-3.992,4.9-7.089,10.176-8.55,16.145c-0.522,2.137-0.312,3.097,0.866,3.381c1.565,0.377,2.384-0.875,3.197-2.074
		c0.029-0.045,0.045-0.099,0.075-0.144c4.624-7.064,9.992-13.535,15.976-19.5c0.539-0.537,1.322-1.124,1.96-1.196
		c12.13-1.37,24.254-2.682,36.378-3.964c2.183-0.23,4.346-0.188,6.529-0.459c0.669-0.083,1.551-0.668,1.98-1.263
		C367.676,66.147,367.246,65.18,366.866,64.745z M229.961,109.838c0.37,0.749-0.078,1.475-0.476,2.175
		c-1.56,2.742-3.633,5.113-6.033,7.056c-2.26,1.83-4.763,3.301-7.163,4.926c-0.107,0.073-0.238,0.1-0.386,0.161
		C217.026,119.101,225.678,110.303,229.961,109.838z M301.428,124.354c-0.404,0.216-0.93,0.417-1.303,0.342
		c-0.699-0.141-1.672-0.291-1.884-0.807c-0.21-0.507,0.188-1.645,0.671-2.196c0.758-0.866,1.747-1.69,2.749-2.146
		c2.398-1.091,4.864-1.956,7.689-3.065C307.268,120.254,304.646,122.64,301.428,124.354z M307.643,65.955
		c-0.367,0.965-0.547,1.829-0.994,2.548c-0.182,0.294-0.363,0.59-0.544,0.885l-3.703,0.844
		C304.533,67.993,306.396,66.409,307.643,65.955z M285.834,94.915c-0.096,0.102-0.215,0.184-0.367,0.312
		c1.428-4.357,6.417-12.117,11.461-18.573l5.265-1.123c-0.325,0.475-0.647,0.951-0.987,1.416
		C296.545,83.325,291.284,89.206,285.834,94.915z"/>
	<g id="Lamb">
		<path fill-rule="evenodd" clip-rule="evenodd" d="M210,118c-0.472,1.885-2.781,4.531-3.631,6.024
			c-3.171,5.578-6.988,10.684-11.999,14.764c-1.647,1.341-3.54,2.521-5.433,3.284c-4.545,1.835-8.025-0.887-7.342-5.672
			c0.281-1.967,1.013-3.947,1.556-5.92c0.145-0.524,0.35-1.041,0.525-1.553c-2.059,2.136-3.983,4.305-6.083,6.268
			c-2.258,2.109-4.604,4.15-7.057,5.983c-1.762,1.316-3.78,1.813-5.42,0.541c-1.648-1.279-2.071-3.333-1.272-5.48
			c1.178-3.167,2.644-6.286,4.19-9.346c1.969-3.896,4.183-7.697,6.207-11.574c0.934-1.789,1.667-3.66,2.491-5.493
			c-0.139-0.109-0.278-0.218-0.417-0.326c-2.274,1.947-4.697,3.739-6.797,5.869c-7.694,7.805-14.778,16.124-20.799,25.296
			c-0.836,1.272-1.775,2.84-3.367,2.512c-1.55-0.319-1.417-2.067-1.087-3.37c0.699-2.768,1.433-5.598,2.646-8.236
			c2.151-4.676,4.675-9.227,7.033-13.834c0.358-0.702,0.663-1.426,0.992-2.139c-0.119-0.106-0.237-0.213-0.354-0.319
			c-2.438,2.353-5.001,4.586-7.292,7.078c-5.896,6.414-11.263,13.238-15.935,20.581c-0.499,0.785-1.589,1.514-2.458,1.759
			c-1.84,0.521-2.888-0.522-2.366-2.429c0.59-2.158,1.449-4.302,2.353-6.403c2.155-5.01,4.407-9.99,6.61-14.984
			c0.146-0.333,0.207-0.691,0.413-1.398c-0.576,0.527-0.904,0.816-1.221,1.119c-4.983,4.776-9.3,10.138-13.646,15.49
			c-3.033,3.735-6.153,7.454-10.1,10.22c-1.427,1-3.027,1.817-4.611,2.393c-3.999,1.455-6.91-0.459-7.167-4.526
			c-0.034-0.539-0.047-1.083-0.08-1.826c-1.696,1.549-3.224,3.062-4.867,4.413c-1.627,1.337-3.289,2.71-5.077,3.717
			c-5.433,3.061-10.019-0.126-9.07-6.115c1.086-6.855,4.626-12.737,9.243-18.14c5.01-5.863,10.912-10.365,17.941-12.609
			c2.001-0.639,4.133-0.518,6.179-0.569c0.458-0.011,0.81,0.713,1.21,1.098c-0.44,0.457-0.878,1.241-1.318,1.321
			c-8.102,1.452-13.51,7.453-18.667,13.683c-3.487,4.211-6.463,8.792-8.258,13.901c-0.359,1.021-0.517,2.083-0.769,3.125
			c0.108,0.137,0.216,0.274,0.324,0.411c1.152-0.475,2.417-0.75,3.439-1.459c4.561-3.167,8.605-7.062,12.077-11.417
			c2.138-2.684,3.42-6.009,5.285-8.934c1.238-1.942,2.796-3.716,4.286-5.502c0.385-0.462,1.063-0.888,1.597-0.968
			c0.775-0.116,1.79-0.172,2.237,0.252c0.382,0.361,0.403,1.565,0.073,2.174c-1.357,2.509-2.97,4.905-4.377,7.394
			c-2.408,4.258-4.268,8.682-5.354,13.297c-0.128,0.544-0.07,1.103-0.125,2.184c1.386-0.833,2.609-1.32,3.528-2.168
			c2.842-2.628,5.609-5.351,8.33-8.118c3.296-3.354,6.574-6.734,9.745-10.212c1.76-1.931,3.206-4.154,4.941-6.113
			c1.219-1.376,2.618-2.636,4.062-3.756c1.465-1.136,3.077-1.782,4.554-0.677c1.165,0.873,1.499,2.641,0.676,4.637
			c-0.873,2.119-1.895,4.197-2.88,6.284c-1.071,2.269-2.174,4.527-3.263,6.791c0.104,0.055,0.207,0.108,0.31,0.162
			c1.746-2.105,3.405-4.292,5.253-6.299c3.59-3.895,7.253-7.724,10.96-11.503c0.893-0.911,2.031-1.643,3.136-2.245
			c3.562-1.934,6.98,0.262,6.234,4.163c-0.44,2.304-1.482,4.593-2.273,6.885c-0.146,0.425-0.388,0.832-0.421,1.331
			c2.235-2.718,4.36-5.542,6.733-8.13c2.726-2.972,5.588-5.841,8.565-8.541c1.183-1.074,2.803-1.873,4.276-2.279
			c3.255-0.897,5.135,0.771,5.073,4.086c-0.065,3.5-1.295,6.885-3.1,10.037c-2.851,4.978-6.025,9.8-9.024,14.709
			c-0.941,1.542-1.757,3.148-2.631,4.726c0.137,0.12,0.275,0.24,0.414,0.361c0.838-0.583,1.785-1.052,2.496-1.768
			c3.461-3.486,6.872-7.026,10.277-10.571c2.878-2.996,5.73-6.02,8.579-9.046c0.48-0.51,0.962-1.053,1.321-1.644
			c6.05-9.954,12.478-19.679,19.9-28.753c5.408-6.611,11.053-13.033,17.769-18.308c2.124-1.668,4.511-2.843,6.978-2.366
			c3.438,0.664,4.823,3.375,3.588,7.311c-0.655,2.083-1.808,4.091-2.806,6.105c-0.397,0.804-1.822,2.718-2.179,3.259
			c0,0-19.456,21.072-26.553,27.463c-0.574,0.517-1.99,1.557-2.031,2.328c-0.049,0.926,2.957,1.542,3.709,2.083
			C210,114.312,210.438,116.25,210,118z M202.974,113.232c-3.441-0.763-5.127,3.623-7.974,5.652
			c-0.257,0.184-1.156,0.616-1.875,1.616c-2.459,4.81-4.926,8.607-6.212,13.681c-0.302,1.188-1,2.803,0.2,3.273
			c0.734,0.287,2.22-0.416,3.137-1.074c6.793-4.883,11.353-11.444,14.493-19.005c0.132-0.32,0.246-0.813,0.258-1.109
			C204.875,114.438,204.15,113.493,202.974,113.232z M233.119,72.572c-0.207-0.164-0.416-0.327-0.624-0.491
			c-13.229,10.87-23.071,24.639-32.738,38.568c0.528-0.23,0.922-0.582,1.298-0.953c2.451-2.416,4.928-4.806,7.34-7.26
			c7.362-7.481,14.696-14.996,20.76-23.628C230.571,76.791,231.802,74.654,233.119,72.572z"/>
		<path fill-rule="evenodd" clip-rule="evenodd" d="M14.673,194.035c1.51-0.592,2.628-0.965,3.707-1.465
			c9.156-4.257,18.277-8.639,27.465-12.784c8.058-3.634,16.306-6.319,24.61-8.65c9.551-2.679,19.084-4.24,28.613-4.805
			c0.346-0.021,0.695-0.041,1.032-0.016c0.938,0.07,1.863,0.434,1.584,1.515c-0.189,0.733-0.991,1.661-1.69,2.029
			c-1.05,0.551-2.249,0.708-3.388,0.998c-23.887,6.097-46.93,16.115-69.775,27.094c-3.407,1.641-6.897,3.079-10.401,4.325
			c-2.725,0.973-5.509,1.24-7.834-0.166c-3.182-1.924-3.325-5.311-2.399-9.012c1.188-4.75,3.817-9.038,6.282-13.372
			c7.234-12.721,15.901-24.577,24.428-36.518c11.858-16.61,24.409-32.77,35.46-49.9c3.026-4.692,5.626-9.631,8.336-14.496
			c1.286-2.306,2.254-2.613,3.505-0.723c2.909,4.393,3.316,9.258,0.259,14.893c-4.885,9.003-10.817,17.338-17.293,25.344
			c-15.933,19.699-31.083,39.937-44.78,61.166c-2.206,3.419-4.106,7.018-6.07,10.569C15.707,191.178,15.339,192.41,14.673,194.035z"
			/>
	</g>
	<g id="The">
		<path fill-rule="evenodd" clip-rule="evenodd" d="M173.905,14.161c-5.108,1.307-9.979,2.553-14.85,3.796
			c-1.101,0.281-2.203,0.547-3.304,0.83c-0.615,0.158-1.181,0.287-1.637,0.978c-3.963,5.994-8.137,11.872-11.919,17.963
			c-8.047,12.958-15.885,26.031-23.84,39.041c-1.069,1.748-2.309,3.407-3.501,5.088c-0.399,0.563-0.977,1.232-1.589,0.932
			c-0.392-0.193-0.639-0.876-0.66-1.402c-0.041-1.012,0.05-2.069,0.225-3.106c0.325-1.942,1.291-3.575,2.816-5.048
			c1.033-0.999,1.933-2.234,2.659-3.478c7.426-12.726,14.76-25.497,22.228-38.202c2.042-3.473,4.45-6.763,6.688-10.138
			c0.049-0.075,0.063-0.169,0.127-0.338c-4.528,1.255-9.003,2.495-13.477,3.735c-4.361,1.209-8.72,2.438-13.083,3.613
			c-0.857,0.231-1.734,0.291-2.598,0.371c-0.726,0.068-1.024-0.348-0.72-1.065c0.206-0.483,0.523-0.989,0.906-1.356
			c2.463-2.363,5.221-3.931,8.385-4.236c3.574-0.345,7.08-1.603,10.607-2.596c3.884-1.093,7.771-2.162,11.659-3.205
			c1.317-0.354,2.48-0.744,3.54-1.98c0.829-0.967,2.063-1.67,3.199-2.27c1.217-0.645,1.788-0.182,1.746,1.134
			c-0.008,0.236-0.025,0.475-0.04,0.764c2.851-0.79,5.63-1.57,8.409-2.327c4.334-1.18,8.674-2.302,13.003-3.527
			c5.115-1.449,10.24-2.49,15.377-3.285c0.587-0.09,1.197-0.109,1.751-0.016c1.068,0.183,1.247,0.958,0.452,1.937
			c-0.408,0.501-0.887,1.02-1.418,1.34c-2.353,1.417-4.704,2.86-7.128,4.084c-0.787,0.396-1.798,0.172-2.699,0.187
			c-0.373,0.006-0.727-0.107-1.155-0.176c0.053,2.031-0.755,3.867-1.941,5.521c-2.596,3.614-5.131,7.301-8.009,10.688
			c-4.845,5.706-9.9,11.237-14.944,16.771c-2.209,2.423-4.606,4.673-6.912,7.005c-0.205,0.207-0.437,0.428-0.552,0.679
			c-1.381,2.972-2.742,5.95-3.958,9.016c0.231-0.238,0.467-0.475,0.696-0.717c3.861-4.074,7.689-8.182,11.599-12.209
			c1.527-1.574,3.248-2.914,5.31-3.589c1.153-0.377,2.171-0.339,2.921,0.417c0.786,0.793,0.889,1.945,0.356,3.09
			c-0.646,1.391-1.446,2.739-2.273,4.056c-1.595,2.538-3.281,5.026-4.869,7.568c-0.346,0.554-0.441,1.245-0.528,1.942
			c1.594-0.529,2.92-1.424,4.078-2.558c2.879-2.822,5.637-5.784,8.571-8.54c3.09-2.902,5.739-6.348,9.351-8.61
			c0.915-0.573,1.886-1.104,2.867-1.444c2.925-1.014,4.979,1.148,3.833,4.129c-0.526,1.368-1.363,2.732-2.299,3.916
			c-2.864,3.621-6.191,6.686-10.31,8.586c-0.888,0.409-1.84,0.602-2.775,0.897c0.131,1.571,1.18,2.341,2.896,1.571
			c1.705-0.763,3.429-1.686,4.95-2.845c3.951-3.009,7.799-6.18,11.677-9.302c0.658-0.529,1.226-1.197,1.899-1.693
			c0.414-0.306,0.951-0.404,1.434-0.596c-0.12,0.516-0.114,1.104-0.388,1.531c-0.688,1.068-1.435,2.125-2.277,3.079
			c-3.972,4.504-8.532,8.201-13.652,11.034c-1.899,1.051-3.894,1.855-5.953,1.6c-1.514-0.189-2.625-0.926-2.95-2.445
			c-0.273-1.281-0.303-2.657-0.439-3.996c-0.142,0.146-0.439,0.459-0.738,0.77c-2.1,2.174-4.267,4.264-6.762,5.926
			c-0.507,0.338-1.032,0.651-1.568,0.921c-1.131,0.567-2.271,0.859-3.167,0.06c-0.91-0.812-0.981-2.027-0.577-3.294
			c0.363-1.14,0.804-2.294,1.392-3.36c1.58-2.867,3.256-5.69,4.938-8.606c-1.333,0.627-2.371,1.663-3.354,2.707
			c-3.669,3.896-7.277,7.851-10.943,11.75c-1.233,1.312-2.547,2.549-3.866,3.771c-0.417,0.387-0.952,0.67-1.462,0.905
			c-1.594,0.731-2.75,0.151-2.69-1.533c0.041-1.121,0.366-2.322,0.762-3.445c2.559-7.276,6.146-14.2,9.97-21.033
			c3.976-7.101,8.21-14.074,13.359-20.485c2.022-2.519,4.402-4.76,6.621-7.127C173.487,14.565,173.602,14.461,173.905,14.161z
			 M155.524,45.783c0.233-0.18,0.289-0.212,0.332-0.257c7.65-8.271,15.135-16.685,21.706-25.852c1.341-1.87,2.525-3.845,3.782-5.771
			c-0.076-0.071-0.152-0.145-0.229-0.218c-0.283,0.098-0.594,0.14-0.843,0.303c-1.341,0.879-2.759,1.666-3.979,2.71
			c-3.319,2.847-6.11,6.199-8.71,9.727C163.085,32.526,159.19,38.947,155.524,45.783z M174.486,56.371
			c2.623-1.236,4.909-2.867,7.047-4.731c1.925-1.679,3.68-3.553,4.956-5.795c0.325-0.567,0.467-1.223,0.718-1.906
			C183.323,44.208,175.747,51.706,174.486,56.371z"/>
	</g>
</g>
<g>
</g>
<g>
</g>
<g>
</g>
<g>
</g>
<g>
</g>
<g>
</g>
</svg>
